{"scene":0,"asset":{"generator":"ImageToStl.com","version":"2.0"},"scenes":[{"name":"Scene","nodes":[0]}],"nodes":[{"name":"Node0","children":[1]},{"name":"SketchUp","children":[2]},{"name":"group_0","children":[3,4,5,6]},{"name":"Node3","mesh":0},{"name":"Node4","mesh":1},{"name":"Node5"},{"name":"group_1","children":[7]},{"name":"Node7","mesh":2}],"materials":[{"name":"ID6","pbrMetallicRoughness":{"baseColorFactor":[1.0,1.0,1.0,1.0],"metallicFactor":0.0,"roughnessFactor":1.0},"doubleSided":true},{"name":"ID11","pbrMetallicRoughness":{"baseColorFactor":[0.0,0.0,0.0,1.0],"metallicFactor":0.0,"roughnessFactor":1.0},"doubleSided":true}],"meshes":[{"name":"Mesh0","primitives":[{"indices":2,"material":0,"attributes":{"POSITION":0,"NORMAL":1}}]},{"name":"Mesh0","primitives":[{"indices":5,"material":0,"attributes":{"POSITION":3,"NORMAL":4}}]},{"name":"Mesh0","primitives":[{"indices":8,"material":0,"attributes":{"POSITION":6,"NORMAL":7}}]}],"accessors":[{"bufferView":0,"componentType":5126,"count":2132,"type":"VEC3","min":[116.81962,78.893166,0.0],"max":[20030.787,77575.19,2.0]},{"bufferView":1,"componentType":5126,"count":2132,"type":"VEC3"},{"bufferView":2,"componentType":5123,"count":6348,"type":"SCALAR"},{"bufferView":3,"componentType":5126,"count":948,"type":"VEC3","min":[548.8061,553.23865,0.0],"max":[19647.832,77086.01,2.0]},{"bufferView":4,"componentType":5126,"count":948,"type":"VEC3"},{"bufferView":5,"componentType":5123,"count":2832,"type":"SCALAR"},{"bufferView":6,"componentType":5126,"count":96,"type":"VEC3","min":[708.4146,64016.14,2.0],"max":[2582.8252,64275.73,338.0]},{"bufferView":7,"componentType":5126,"count":96,"type":"VEC3"},{"bufferView":8,"componentType":5123,"count":168,"type":"SCALAR"}],"bufferViews":[{"target":34962,"buffer":0,"byteLength":25584,"byteOffset":0},{"target":34962,"buffer":0,"byteLength":25584,"byteOffset":25584},{"target":34963,"buffer":0,"byteLength":12696,"byteOffset":51168},{"target":34962,"buffer":0,"byteLength":11376,"byteOffset":63864},{"target":34962,"buffer":0,"byteLength":11376,"byteOffset":75240},{"target":34963,"buffer":0,"byteLength":5664,"byteOffset":86616},{"target":34962,"buffer":0,"byteLength":1152,"byteOffset":92280},{"target":34962,"buffer":0,"byteLength":1152,"byteOffset":93432},{"target":34963,"buffer":0,"byteLength":336,"byteOffset":94584}],"buffers":[{"byteLength":94920,"uri":"data:application/octet-stream;base64,"}]}